<svg width="19" height="19" viewBox="0 0 19 19" fill="none" xmlns="http://www.w3.org/2000/svg">
<path d="M13.0371 11.8269H12.2471L11.9671 11.5569C12.9811 10.381 13.5383 8.87962 13.5371 7.32691C13.5371 6.04133 13.1559 4.78462 12.4417 3.7157C11.7274 2.64678 10.7123 1.81366 9.52455 1.32169C8.33683 0.829721 7.0299 0.700999 5.76902 0.951803C4.50815 1.20261 3.34996 1.82167 2.44092 2.73071C1.53188 3.63975 0.912812 4.79794 0.662008 6.05882C0.411204 7.3197 0.539926 8.62663 1.0319 9.81435C1.52386 11.0021 2.35699 12.0172 3.42591 12.7315C4.49483 13.4457 5.75153 13.8269 7.03711 13.8269C8.64711 13.8269 10.1271 13.2369 11.2671 12.2569L11.5371 12.5369V13.3269L16.5371 18.3169L18.0271 16.8269L13.0371 11.8269ZM7.03711 11.8269C4.54711 11.8269 2.53711 9.81691 2.53711 7.32691C2.53711 4.83691 4.54711 2.82691 7.03711 2.82691C9.52711 2.82691 11.5371 4.83691 11.5371 7.32691C11.5371 9.81691 9.52711 11.8269 7.03711 11.8269Z" fill="#46D2C4"/>
</svg>
